<svg width="240" height="74" viewBox="0 0 240 74" fill="none" xmlns="http://www.w3.org/2000/svg">
    <path fill-rule="evenodd" clip-rule="evenodd"
        d="M64.3109 58.1833H4.93498V4.93497H64.3109V58.1833ZM66.7784 0H2.46749C1.10503 0 0 1.10502 0 2.46749V60.6508C0 62.0133 1.10502 63.1183 2.46749 63.1183H66.7784C68.1408 63.1183 69.2459 62.0133 69.2459 60.6508V2.46749C69.2459 1.10503 68.1408 0 66.7784 0Z"
        fill="url(#paint0_linear_0_3972)" />
    <path fill-rule="evenodd" clip-rule="evenodd"
        d="M24.5718 28.9877C23.3766 28.9807 22.4019 29.9466 22.3949 31.145C22.3879 32.343 23.3515 33.3199 24.5472 33.3269H24.5513C25.7469 33.3314 26.7195 32.3636 26.7241 31.1655C26.7286 29.9688 25.7658 28.9947 24.5718 28.9877Z"
        fill="url(#paint1_linear_0_3972)" />
    <path fill-rule="evenodd" clip-rule="evenodd"
        d="M15.7178 51.325C17.0802 51.325 18.1853 50.2202 18.1853 48.858V19.2843L33.1157 30.7994C34.1952 31.6316 35.7444 31.4318 36.5768 30.3528C37.4091 29.2739 37.2089 27.7246 36.1297 26.8923L17.225 12.3119C16.4802 11.7371 15.4731 11.6363 14.6292 12.0512C13.7849 12.4665 13.2503 13.325 13.2503 14.2654V48.858C13.2503 50.2202 14.3553 51.325 15.7178 51.325"
        fill="url(#paint2_linear_0_3972)" />
    <path fill-rule="evenodd" clip-rule="evenodd"
        d="M32.311 33.5527C31.1971 32.7674 29.6579 33.0346 28.8729 34.1481C28.088 35.2616 28.3544 36.8006 29.4684 37.5856L35.3609 41.7389C35.9103 42.1262 36.5941 42.273 37.2537 42.1439C37.9132 42.0156 38.4918 41.6233 38.8561 41.0584L50.7218 22.6482V46.3914H42.9871C41.6247 46.3914 40.5198 47.4962 40.5198 48.8584C40.5198 50.2211 41.6247 51.3255 42.9871 51.3255H53.189C54.5517 51.3255 55.6562 50.2211 55.6562 48.8584V14.2659C55.6562 13.1718 54.9358 12.2084 53.886 11.8992C52.8366 11.5904 51.7083 12.0094 51.1153 12.9296L36.1015 36.2241L32.311 33.5527Z"
        fill="url(#paint3_linear_0_3972)" />
    <path fill-rule="evenodd" clip-rule="evenodd"
        d="M51.7569 68.0696H17.239C15.8763 68.0696 14.7711 69.1758 14.7711 70.5396C14.7711 71.9034 15.8763 73.0096 17.239 73.0096H51.7569C53.1196 73.0096 54.2248 71.9034 54.2248 70.5396C54.2248 69.1758 53.1196 68.0696 51.7569 68.0696Z"
        fill="url(#paint4_linear_0_3972)" />
    <path fill-rule="evenodd" clip-rule="evenodd"
        d="M90.2849 46.1828C88.876 46.4181 87.4481 46.5184 86.0203 46.483C84.4851 46.4859 83.2649 46.2116 82.3602 45.6605C81.4554 45.1095 81.0031 44.1142 81.0031 42.6749C80.9788 42.028 81.154 41.3889 81.5048 40.8448C81.8403 40.3575 82.2985 39.9672 82.8331 39.7139C83.4204 39.4359 84.0475 39.25 84.6915 39.1628C85.3639 39.0616 86.0433 39.0107 86.7235 39.0107C87.4284 39.0053 88.1325 39.0559 88.8291 39.1628C89.3201 39.2319 89.8066 39.3322 90.2849 39.463L90.2849 46.1828ZM93.8751 26.7226C92.9671 25.7623 91.8374 25.0398 90.5851 24.617C88.9525 24.0741 87.2384 23.8196 85.5186 23.8644C83.9447 23.8393 82.3713 23.9549 80.818 24.2099C79.6801 24.404 78.557 24.6787 77.4581 25.0324L78.2107 29.9673C79.1413 29.6507 80.0975 29.4154 81.0689 29.2641C82.347 29.0568 83.64 28.9565 84.9346 28.9639C85.8134 28.9413 86.689 29.0807 87.5172 29.3751C88.1489 29.6116 88.7135 29.9982 89.1622 30.502C89.578 30.9889 89.8774 31.5642 90.0382 32.184C90.2084 32.8391 90.2927 33.5139 90.289 34.1909V35.1943C89.5126 35.0101 88.7255 34.8731 87.9326 34.7831C87.2322 34.7029 86.5277 34.6617 85.8229 34.6597C84.4333 34.6502 83.0465 34.788 81.6857 35.0709C80.4474 35.3214 79.2651 35.7964 78.1983 36.4733C77.2097 37.1115 76.3909 37.9813 75.8131 39.0066C75.1966 40.1803 74.8948 41.4938 74.9372 42.8188C74.894 44.1821 75.1596 45.5372 75.7144 46.7832C76.2042 47.8208 76.9465 48.7186 77.8735 49.3947C78.8761 50.0987 80.0103 50.5922 81.2087 50.8464C82.6246 51.1614 84.0722 51.3131 85.5227 51.2987C87.6628 51.3197 89.8017 51.182 91.9217 50.8875C93.8105 50.605 95.224 50.3623 96.1616 50.1596V34.2525C96.1752 32.8218 95.9967 31.396 95.6311 30.0126C95.3186 28.7907 94.7161 27.6623 93.8751 26.7226"
        fill="#004488" />
    <path fill-rule="evenodd" clip-rule="evenodd"
        d="M116.696 45.8041C115.739 46.0525 114.753 46.1714 113.764 46.1578C112.157 46.1578 111.022 45.7053 110.352 44.8004C109.683 43.8925 109.349 42.3845 109.349 40.2755V29.5805H118.678V24.5085H109.349V16.5818L103.28 17.5855V40.3331C103.261 41.893 103.412 43.4503 103.733 44.9773C103.988 46.2327 104.518 47.4157 105.287 48.4408C106.065 49.4252 107.097 50.1788 108.272 50.621C109.773 51.1644 111.363 51.4198 112.959 51.3738C114.311 51.3972 115.661 51.238 116.971 50.9007C117.91 50.649 118.831 50.3388 119.73 49.9711L118.727 45.1542C118.062 45.4055 117.384 45.6227 116.696 45.8041"
        fill="#004488" />
    <path fill-rule="evenodd" clip-rule="evenodd"
        d="M140.008 45.7211C139.405 45.8503 138.793 45.9341 138.177 45.972C137.359 46.0378 136.577 46.0707 135.845 46.0707C133.81 46.0789 132.381 45.4814 131.559 44.2777C130.736 43.0741 130.325 41.0673 130.325 38.2575V24.5104H124.249V39.2115C124.235 40.8593 124.421 42.5025 124.804 44.105C125.128 45.5019 125.753 46.8113 126.635 47.9417C127.543 49.052 128.718 49.9148 130.049 50.4502C131.737 51.0987 133.536 51.4046 135.343 51.3507C137.409 51.3651 139.474 51.2068 141.514 50.8778C143.389 50.5571 144.911 50.2474 146.08 49.9485V24.5104H140.008V45.7211Z"
        fill="#004488" />
    <path fill-rule="evenodd" clip-rule="evenodd"
        d="M167.048 24.227C166.514 24.1447 165.983 24.083 165.445 24.0296C164.906 23.9761 164.45 23.9514 164.038 23.9514C162.076 23.9333 160.117 24.1279 158.196 24.5314C156.706 24.8427 155.239 25.2552 153.805 25.7652V50.7546H159.874V29.7299C160.393 29.5806 160.922 29.4638 161.457 29.3803C162.159 29.25 162.872 29.1825 163.586 29.1788C164.621 29.1673 165.654 29.2598 166.67 29.4544C167.373 29.593 168.069 29.7686 168.754 29.9808L169.807 24.8562C169.507 24.7534 169.104 24.6506 168.602 24.5313C168.101 24.4121 167.583 24.3092 167.048 24.227"
        fill="#004488" />
    <path fill-rule="evenodd" clip-rule="evenodd"
        d="M187.521 46.1831C186.112 46.4179 184.685 46.5186 183.257 46.4833C181.715 46.4833 180.497 46.2119 179.593 45.6608C178.688 45.1097 178.24 44.1145 178.24 42.6751C178.213 42.0278 178.389 41.3883 178.741 40.8451C179.077 40.3577 179.535 39.9675 180.07 39.7141C180.656 39.4353 181.281 39.2494 181.924 39.1631C182.597 39.0619 183.276 39.0113 183.956 39.0109C184.662 39.0056 185.368 39.0565 186.066 39.1631C186.557 39.233 187.043 39.3333 187.521 39.4633L187.521 46.1831ZM191.132 26.7187C190.222 25.7605 189.093 25.0379 187.842 24.6131C186.203 24.0699 184.481 23.8165 182.755 23.8647C181.178 23.8375 179.602 23.9518 178.046 24.206C176.907 24.4001 175.783 24.6752 174.682 25.0285L175.435 29.9634C176.372 29.646 177.336 29.4107 178.314 29.2602C179.59 29.053 180.882 28.9526 182.175 28.96C183.054 28.9374 183.93 29.0768 184.758 29.3713C186.02 29.824 186.972 30.8785 187.295 32.1801C187.463 32.8356 187.548 33.5101 187.546 34.187V35.1904C186.768 35.0066 185.98 34.8692 185.185 34.7792C184.486 34.699 183.784 34.6578 183.08 34.6558C181.689 34.6459 180.301 34.7837 178.939 35.067C177.7 35.3179 176.518 35.7933 175.451 36.4694C174.463 37.1068 173.645 37.9766 173.07 39.0027C172.45 40.1752 172.147 41.4891 172.19 42.815C172.147 44.1782 172.413 45.5333 172.967 46.7794C173.457 47.8169 174.199 48.7147 175.126 49.3908C176.129 50.094 177.264 50.5879 178.462 50.8425C179.879 51.1575 181.328 51.3093 182.78 51.2949C184.919 51.3154 187.056 51.1781 189.175 50.8836C191.063 50.6011 192.477 50.3585 193.415 50.1557V34.2487C193.427 32.8184 193.25 31.3926 192.888 30.0087C192.572 28.7881 191.97 27.6605 191.132 26.7187"
        fill="#004488" />
    <path fill-rule="evenodd" clip-rule="evenodd" d="M201.112 50.7539V15.9819H207.434V50.7539H201.112Z"
        fill="#004488" />
    <path fill-rule="evenodd" clip-rule="evenodd"
        d="M212.248 15.9822V21.4519H222.94V50.7541H229.307V21.4519H240V15.9822H212.248Z" fill="#004488" />
    <defs>
        <linearGradient id="paint0_linear_0_3972" x1="-0.548541" y1="72.6374" x2="75.4482" y2="73.8409"
            gradientUnits="userSpaceOnUse">
            <stop stop-color="#004488" />
            <stop offset="1" stop-color="#66DDAA" />
        </linearGradient>
        <linearGradient id="paint1_linear_0_3972" x1="22.3553" y1="33.9798" x2="27.1153" y2="34.0498"
            gradientUnits="userSpaceOnUse">
            <stop stop-color="#004488" />
            <stop offset="1" stop-color="#66DDAA" />
        </linearGradient>
        <linearGradient id="paint2_linear_0_3972" x1="13.0598" y1="57.2884" x2="39.2333" y2="57.5175"
            gradientUnits="userSpaceOnUse">
            <stop stop-color="#004488" />
            <stop offset="1" stop-color="#66DDAA" />
        </linearGradient>
        <linearGradient id="paint3_linear_0_3972" x1="28.2026" y1="57.2896" x2="58.1059" y2="57.5886"
            gradientUnits="userSpaceOnUse">
            <stop stop-color="#004488" />
            <stop offset="1" stop-color="#66DDAA" />
        </linearGradient>
        <linearGradient id="paint4_linear_0_3972" x1="14.4599" y1="73.7479" x2="57.164" y2="78.7902"
            gradientUnits="userSpaceOnUse">
            <stop stop-color="#004488" />
            <stop offset="1" stop-color="#66DDAA" />
        </linearGradient>
    </defs>
</svg>